<svg xmlns="http://www.w3.org/2000/svg" style="color: white; fill: white;" viewBox="0 0 50 50"><path d="M 44.375 0 C 44.242188 0.0117188 44.097656 0.0546875 43.96875 0.09375 L 40.3125 1.21875 C 40.28125 1.21875 40.25 1.21875 40.21875 1.21875 C 40.050781 1.238281 39.886719 1.304688 39.75 1.40625 L 34.59375 2.96875 C 34.5625 2.96875 34.53125 2.96875 34.5 2.96875 C 34.332031 2.988281 34.167969 3.054688 34.03125 3.15625 L 28.75 4.75 C 28.652344 4.765625 28.558594 4.796875 28.46875 4.84375 L 23.03125 6.5 C 22.898438 6.515625 22.773438 6.558594 22.65625 6.625 L 17.375 8.25 C 17.34375 8.257813 17.3125 8.269531 17.28125 8.28125 C 17.183594 8.296875 17.089844 8.328125 17 8.375 L 11.5625 10.03125 C 11.464844 10.046875 11.371094 10.078125 11.28125 10.125 L 5.875 11.78125 C 5.855469 11.78125 5.832031 11.78125 5.8125 11.78125 C 5.667969 11.804688 5.527344 11.855469 5.40625 11.9375 L 1.90625 13 C 0.992188 13.28125 0.417969 14.171875 0.5 15.09375 C 0.5 15.105469 0.5 15.113281 0.5 15.125 C 0.503906 15.1875 0.515625 15.25 0.53125 15.3125 C 0.535156 15.375 0.546875 15.4375 0.5625 15.5 C 0.570313 15.542969 0.582031 15.585938 0.59375 15.625 L 0.90625 16.53125 C 0.355469 17.214844 0 18.0625 0 19 C 0 20.464844 0.816406 21.742188 2 22.4375 L 2 24.8125 C 2 24.84375 2 24.875 2 24.90625 C 1.992188 24.980469 1.992188 25.050781 2 25.125 C 2 25.15625 2 25.1875 2 25.21875 L 2 25.6875 C 1.941406 25.882813 1.941406 26.085938 2 26.28125 L 2 48 C 2 49.09375 2.90625 50 4 50 L 48 50 C 49.09375 50 50 49.09375 50 48 L 50 26.1875 C 50.027344 26.054688 50.027344 25.914063 50 25.78125 L 50 21.3125 C 50.058594 21.121094 50.058594 20.910156 50 20.71875 L 50 20 C 50 19.449219 49.550781 19 49 19 L 9.65625 19 L 13.71875 17.75 C 13.816406 17.734375 13.910156 17.703125 14 17.65625 L 19.65625 15.9375 C 19.6875 15.929688 19.71875 15.917969 19.75 15.90625 L 24.96875 14.3125 C 25.261719 14.355469 25.5625 14.261719 25.78125 14.0625 L 30.9375 12.46875 C 31.035156 12.453125 31.128906 12.421875 31.21875 12.375 L 36.4375 10.78125 C 36.738281 10.816406 37.035156 10.710938 37.25 10.5 L 42.125 9 C 42.429688 9.050781 42.742188 8.960938 42.96875 8.75 L 47.25 7.4375 C 47.507813 7.363281 47.726563 7.191406 47.855469 6.957031 C 47.984375 6.722656 48.015625 6.445313 47.9375 6.1875 L 47.6875 5.40625 C 47.671875 5.273438 47.628906 5.148438 47.5625 5.03125 L 46.46875 1.40625 C 46.1875 0.492188 45.296875 -0.0898438 44.375 0 Z M 44.5625 2 L 45.03125 3.53125 L 43.03125 2.46875 Z M 40.3125 3.3125 L 45.3125 5.9375 L 42.25 6.875 L 37.28125 4.25 Z M 34.59375 5.0625 L 39.5625 7.71875 L 36.5625 8.625 L 31.5625 6 Z M 28.875 6.8125 L 33.875 9.46875 L 30.84375 10.40625 L 25.8125 7.75 Z M 23.09375 8.59375 L 28.09375 11.25 L 25.09375 12.15625 L 20.09375 9.5 Z M 17.40625 10.34375 L 22.40625 13 L 19.34375 13.9375 L 14.34375 11.28125 Z M 11.65625 12.125 L 16.65625 14.75 L 13.625 15.6875 L 8.65625 13.03125 Z M 5.9375 13.875 L 10.90625 16.53125 L 7.875 17.4375 L 7.625 17.3125 C 6.984375 15.949219 5.597656 15 4 15 C 3.800781 15 3.597656 15.035156 3.40625 15.0625 L 2.90625 14.8125 Z M 4 17 C 4.835938 17 5.542969 17.5 5.84375 18.21875 C 5.855469 18.292969 5.878906 18.367188 5.90625 18.4375 C 5.917969 18.480469 5.957031 18.515625 5.96875 18.5625 C 5.972656 18.574219 5.964844 18.582031 5.96875 18.59375 C 5.929688 18.769531 5.941406 18.953125 6 19.125 C 6 19.136719 6 19.144531 6 19.15625 C 5.996094 19.230469 5.980469 19.304688 5.96875 19.375 C 5.957031 19.394531 5.945313 19.417969 5.9375 19.4375 C 5.847656 19.578125 5.792969 19.738281 5.78125 19.90625 C 5.453125 20.558594 4.789063 21 4 21 C 3.859375 21 3.726563 20.996094 3.59375 20.96875 C 3.582031 20.964844 3.574219 20.972656 3.5625 20.96875 C 3.550781 20.957031 3.542969 20.949219 3.53125 20.9375 C 3.507813 20.933594 3.492188 20.914063 3.46875 20.90625 C 3.4375 20.894531 3.40625 20.882813 3.375 20.875 C 3.34375 20.863281 3.3125 20.855469 3.28125 20.84375 C 3.261719 20.84375 3.238281 20.84375 3.21875 20.84375 C 3.199219 20.835938 3.175781 20.820313 3.15625 20.8125 C 2.472656 20.496094 2 19.8125 2 19 C 2 18.53125 2.144531 18.089844 2.40625 17.75 C 2.441406 17.703125 2.523438 17.699219 2.5625 17.65625 C 2.675781 17.582031 2.769531 17.488281 2.84375 17.375 C 2.855469 17.367188 2.863281 17.351563 2.875 17.34375 C 2.886719 17.332031 2.894531 17.324219 2.90625 17.3125 C 3.042969 17.222656 3.183594 17.148438 3.34375 17.09375 C 3.433594 17.0625 3.527344 17.050781 3.625 17.03125 C 3.746094 17.007813 3.871094 17 4 17 Z M 8.4375 21 L 11.5625 21 L 7.5625 25 L 4.4375 25 Z M 14.4375 21 L 17.5625 21 L 13.5625 25 L 10.4375 25 Z M 20.4375 21 L 23.5625 21 L 19.5625 25 L 16.4375 25 Z M 26.4375 21 L 29.5625 21 L 25.5625 25 L 22.4375 25 Z M 32.4375 21 L 35.5625 21 L 31.5625 25 L 28.4375 25 Z M 38.4375 21 L 41.5625 21 L 37.5625 25 L 34.4375 25 Z M 44.4375 21 L 47.5625 21 L 43.5625 25 L 40.4375 25 Z M 48 23.4375 L 48 25 L 46.4375 25 Z M 4 27 L 48 27 L 48 48 L 4 48 Z"></path></svg>