<svg viewBox="147.5568030991417 74.71212905148506 216.88643439963926 206.37341389799258"><g xmlns="http://www.w3.org/2000/svg" transform="matrix(0.8186779313229491, 0, 0, 0.8186779313229491, 86.94287177492063, 74.71213889408817)"><path id="_Vi8VTbo6h0zuIxeSDTpUQ" d="M-237.4,381.5c-4,2.2-6.9,5.3-8.8,7.8c-0.7,0.9-2.2,0.3-1.9-0.9c1.4-6.9,6.3-8.7,10.1-9    C-236.8,379.4-236.4,380.9-237.4,381.5z M-172.4,386.6v28.9c0,9.4-7.6,17.1-17,17.3v1.3c0,1.5-1.2,2.7-2.7,2.7h-1.7    c-1.5,0-2.7-1.2-2.7-2.7v-1.3h-38.3v1.9c0,1.5-1.2,2.7-2.7,2.7h-1.7c-1.5,0-2.7-1.2-2.7-2.7v-2c-8.7-0.9-15.6-8.3-15.6-17.2v-28.9    c0-9.5,7.8-17.3,17.3-17.3h11.4c2-1.4,4.2-2.4,6.5-3l-5.9-5.9c-0.9-0.9-0.9-2.4,0-3.3c0.9-0.9,2.4-0.9,3.3,0l7.8,7.8l7.9-7.8    c0.9-0.9,2.4-0.9,3.3,0c0.9,0.9,0.9,2.4,0,3.3l-5.9,5.9c2.4,0.6,4.6,1.7,6.5,3h15.6C-180.2,369.3-172.4,377.1-172.4,386.6z     M-187.2,388.5c0-6.8-5.6-12.4-12.4-12.4h-38.9c-6.8,0-12.4,5.6-12.4,12.4v25.3c0,6.8,5.6,12.4,12.4,12.4h38.9    c6.8,0,12.4-5.6,12.4-12.4V388.5z M-177.2,408.3c0-1.4-1.2-2.6-2.6-2.6c-1.4,0-2.6,1.2-2.6,2.6c0,1.4,1.2,2.6,2.6,2.6    C-178.4,410.9-177.2,409.8-177.2,408.3z M-177.2,401.1c0-1.4-1.2-2.6-2.6-2.6c-1.4,0-2.6,1.2-2.6,2.6c0,1.4,1.2,2.6,2.6,2.6    C-178.4,403.8-177.2,402.6-177.2,401.1z M-177.2,393.9c0-1.4-1.2-2.6-2.6-2.6c-1.4,0-2.6,1.2-2.6,2.6c0,1.4,1.2,2.6,2.6,2.6    C-178.4,396.5-177.2,395.3-177.2,393.9z" fill="#7a101c" transform="matrix(3.11307692527771, 0, 0, 3.11307692527771, 875.656005859375, -1109.5784912109375)"></path><path id="_-md0mUzlLIptHamJQfaab" d="M5.9,9.777C5.9,4.377,10.276,0,15.676,0c1.677,0,2.74,0.438,4.61,1.182l68.577,39.9c3.189,1.89,4.666,4.927,5.236,8.428  v0.982c-0.57,3.499-2.047,6.537-5.236,8.428L20.287,98.819c-1.871,0.745-2.934,1.181-4.61,1.181c-5.4,0-9.776-4.377-9.776-9.777  V9.777z" fill="#ff3d54" transform="matrix(0.747776985168457, 0, 0, 0.747776985168457, 165.1116943359375, 96.3448486328125)"></path></g></svg>